<svg width="35" height="45" viewBox="0 0 35 45" fill="none" xmlns="http://www.w3.org/2000/svg">
<g clip-path="url(#clip0_76_24)">
<path d="M21.7738 31.2584C20.5359 29.8394 19.3151 28.4309 18.0812 27.0335C17.8297 26.7481 17.1974 26.7847 16.9479 27.0899C15.8426 28.4419 14.747 29.8009 13.6454 31.1601C13.9874 31.642 14.3517 32.0921 14.6491 32.5821C16.1198 35.0032 15.9964 38.1194 14.2505 40.4044C12.3937 42.8351 9.89543 43.7661 6.89971 43.1453C4.12705 42.57 1.94025 40.2293 1.46744 37.48C0.547502 32.1356 5.42035 27.7972 10.5951 29.3673C10.929 29.4689 11.082 29.3756 11.2746 29.1354C12.4835 27.627 13.7071 26.1304 14.9647 24.5813C14.2586 23.59 13.5289 22.563 12.7956 21.5372C9.98008 17.5963 7.1359 13.6752 4.3645 9.70326C3.32954 8.219 2.78114 6.51833 2.91981 4.66897C3.04379 3.01312 3.97956 1.90575 5.43424 1.11167C5.55293 1.26539 5.6702 1.40704 5.7767 1.55493C9.35228 6.53083 12.9219 11.5105 16.507 16.4789C17.1014 17.3018 17.4141 18.1805 17.3985 19.2015C17.3832 20.2454 17.4138 21.2909 17.4601 22.3337C17.468 22.5063 17.6149 22.7489 17.7673 22.8283C18.8769 23.415 19.7748 24.2578 20.6004 25.1745C21.7808 26.4834 22.9292 27.8231 24.0739 29.1653C24.328 29.464 24.5383 29.5339 24.9397 29.4193C27.7302 28.622 30.1891 29.2838 32.1566 31.3832C34.1279 33.4886 34.6367 36.0234 33.6302 38.7217C32.626 41.4139 30.6055 42.9959 27.7307 43.3356C24.7523 43.6881 21.9873 42.1863 20.6073 39.5679C19.241 36.9758 19.5884 33.8907 21.5044 31.5954C21.5908 31.4924 21.671 31.3847 21.7726 31.2573L21.7738 31.2584ZM8.58313 40.2006C10.7988 40.1552 12.5685 38.3276 12.5377 36.1177C12.5067 33.8969 10.645 32.1084 8.41118 32.1542C6.20274 32.1982 4.42713 34.0332 4.45789 36.2407C4.48894 38.4639 6.34695 40.2476 8.58315 40.2019L8.58313 40.2006ZM26.8617 32.225C24.6327 32.2682 22.8868 34.0724 22.9191 36.3005C22.9519 38.5514 24.7708 40.3129 27.0204 40.2705C29.2639 40.2282 31.0165 38.3937 30.9645 36.1418C30.9129 33.9214 29.0895 32.1818 26.8629 32.225L26.8617 32.225Z" fill="white"/>
<path d="M28.7324 0.729166C31.4088 2.00187 32.3616 5.38885 30.7638 7.84997C27.9162 12.2394 25.0761 16.6347 22.2322 21.0265C22.1582 21.1414 22.0866 21.2586 22.0015 21.3652C21.686 21.7622 21.2821 21.9372 20.7797 21.8085C20.2652 21.6763 19.9406 21.3499 19.8791 20.8146C19.678 19.0812 19.4564 17.3506 19.3156 15.6125C19.2815 15.1855 19.4148 14.6661 19.65 14.308C22.6209 9.79443 25.6261 5.30316 28.6239 0.805985C28.6415 0.780305 28.6787 0.766357 28.7336 0.729144L28.7324 0.729166Z" fill="white"/>
</g>
<defs>
<clipPath id="clip0_76_24">
<rect width="43.6673" height="33.5065" fill="white" transform="translate(1 44.2556) rotate(-91.0178)"/>
</clipPath>
</defs>
</svg>
